<svg xmlns="http://www.w3.org/2000/svg" viewBox="0 0 960 420" font-family="ui-sans-serif, -apple-system, Segoe UI, Roboto, sans-serif">
  <rect x="0" y="0" width="960" height="420" rx="12" fill="#fbfcfe" stroke="#d9dee5"/>
  <text x="32" y="40" font-size="20" font-weight="700" fill="#1b2026">Beziers become arc-splines</text>
  <text x="32" y="60" font-size="13" fill="#5b6672">A cubic has no closed-form distance field. Rather than solve it per pixel, fit it with circular arcs on the CPU:</text>
  <text x="32" y="77" font-size="13" fill="#5b6672">one arc per piece, split until the worst gap to the true curve is sub-pixel.</text>

  <defs>
    <marker id="devA" markerWidth="8" markerHeight="8" refX="4" refY="4" orient="auto">
      <path d="M4,0 L8,4 L4,8 L0,4 Z" fill="#e8590c"/>
    </marker>
    <marker id="devB" markerWidth="8" markerHeight="8" refX="4" refY="4" orient="auto">
      <path d="M4,0 L8,4 L4,8 L0,4 Z" fill="#e8590c"/>
    </marker>
  </defs>

  <!-- ============ Panel A: one chord / arc, deviation too high ============ -->
  <rect x="32" y="84" width="288" height="300" rx="10" fill="#ffffff" stroke="#cfd8e3"/>
  <text x="48" y="110" font-size="13" font-weight="700" fill="#1b2026">a. try one piece</text>
  <g transform="translate(40,68)">
    <!-- control polygon -->
    <polyline points="30,70 170,70 130,170 270,170" fill="none" stroke="#c2ccd8" stroke-width="1.2" stroke-dasharray="3 3"/>
    <circle cx="170" cy="70" r="3" fill="none" stroke="#9aa6b4"/>
    <circle cx="130" cy="170" r="3" fill="none" stroke="#9aa6b4"/>
    <!-- the cubic (an S, has an inflection) -->
    <path d="M 30 70 C 170 70 130 170 270 170" fill="none" stroke="#1b2026" stroke-width="3"/>
    <!-- the chord through the sample points -->
    <line x1="30" y1="70" x2="270" y2="170" stroke="#e8590c" stroke-width="2" stroke-dasharray="6 4"/>
    <!-- 3 sample points: start, mid (t=0.5), end -->
    <circle cx="30" cy="70" r="4.5" fill="#2f6df6"/>
    <circle cx="150" cy="120" r="4.5" fill="#2f6df6"/>
    <circle cx="270" cy="170" r="4.5" fill="#2f6df6"/>
    <!-- deviation arrow at the left bulge -->
    <line x1="107" y1="102" x2="107" y2="86" stroke="#e8590c" stroke-width="2" marker-start="url(#devA)" marker-end="url(#devB)"/>
    <text x="114" y="92" font-size="11" font-weight="600" fill="#e8590c">deviation</text>
  </g>
  <text x="48" y="348" font-size="11.5" fill="#5b6672">Sample the cubic at start, midpoint, end.</text>
  <text x="48" y="365" font-size="11.5" fill="#5b6672">One arc can't span an inflection &#8594; too high.</text>

  <!-- ============ Panel B: split at midpoint, fit each half ============ -->
  <rect x="336" y="84" width="288" height="300" rx="10" fill="#ffffff" stroke="#cfd8e3"/>
  <text x="352" y="110" font-size="13" font-weight="700" fill="#1b2026">b. split, fit an arc to each half</text>
  <g transform="translate(344,68)">
    <!-- faint true cubic underneath -->
    <path d="M 30 70 C 170 70 130 170 270 170" fill="none" stroke="#c2ccd8" stroke-width="5"/>
    <!-- left half arc (through p0, its mid, midpoint) -->
    <path d="M 30 70 A 142.5 142.5 0 0 1 150 120" fill="none" stroke="#7048e8" stroke-width="3"/>
    <!-- right half arc -->
    <path d="M 150 120 A 142.5 142.5 0 0 0 270 170" fill="none" stroke="#2f9e44" stroke-width="3"/>
    <!-- split point + endpoints -->
    <circle cx="30" cy="70" r="4.5" fill="#2f6df6"/>
    <circle cx="270" cy="170" r="4.5" fill="#2f6df6"/>
    <circle cx="150" cy="120" r="5.5" fill="#e8590c"/>
    <text x="158" y="116" font-size="11" font-weight="600" fill="#e8590c">split (t = 0.5)</text>
  </g>
  <text x="352" y="348" font-size="11.5" fill="#5b6672">De Casteljau halves the cubic; each half is</text>
  <text x="352" y="365" font-size="11.5" fill="#5b6672">re-fit and re-checked. Recurse until in tolerance.</text>

  <!-- ============ Panel C: converged arc-spline ============ -->
  <rect x="640" y="84" width="288" height="300" rx="10" fill="#ffffff" stroke="#cfd8e3"/>
  <text x="656" y="110" font-size="13" font-weight="700" fill="#1b2026">c. converged arc-spline</text>
  <g transform="translate(648,68)">
    <path d="M 30 70 A 142.5 142.5 0 0 1 150 120" fill="none" stroke="#7048e8" stroke-width="3.5"/>
    <path d="M 150 120 A 142.5 142.5 0 0 0 270 170" fill="none" stroke="#2f9e44" stroke-width="3.5"/>
    <circle cx="30" cy="70" r="4" fill="#2f6df6"/>
    <circle cx="150" cy="120" r="4" fill="#2f6df6"/>
    <circle cx="270" cy="170" r="4" fill="#2f6df6"/>
    <text x="20" y="62" font-size="10.5" fill="#5b6672">arc 1</text>
    <text x="240" y="196" font-size="10.5" fill="#5b6672">arc 2</text>
  </g>
  <text x="656" y="348" font-size="11.5" fill="#5b6672">Each arc carries its exact length r&#183;|sweep|,</text>
  <text x="656" y="365" font-size="11.5" fill="#5b6672">so dashes and flow stay even along the curve.</text>
</svg>
