<svg xmlns="http://www.w3.org/2000/svg" viewBox="0 0 960 520" font-family="ui-sans-serif, -apple-system, Segoe UI, Roboto, sans-serif">
  <rect x="0" y="0" width="960" height="520" rx="12" fill="#fbfcfe" stroke="#d9dee5"/>
  <text x="32" y="40" font-size="20" font-weight="700" fill="#1b2026">A two-level tile index</text>
  <text x="32" y="60" font-size="13" fill="#5b6672">A compute shader builds two grids. Coarse 64px tiles hold the heavy (segment, entry) cull results; the 16x more</text>
  <text x="32" y="77" font-size="13" fill="#5b6672">numerous 16px fine tiles hold only compact 16-bit indices into them - one indirection for a far smaller fine buffer.</text>

  <!-- grid: one coarse tile = 4x4 fine tiles -->
  <g transform="translate(32,92)">
    <rect x="0" y="0" width="384" height="384" fill="#ffffff" stroke="#cfd8e3"/>
    <!-- fine 16px lines (light): 6x6 cells of 64px? use 24px cells visually = 16 cells -->
    <g stroke="#eef2f7" stroke-width="1">
      <line x1="24" y1="0" x2="24" y2="384"/><line x1="48" y1="0" x2="48" y2="384"/>
      <line x1="72" y1="0" x2="72" y2="384"/><line x1="120" y1="0" x2="120" y2="384"/>
      <line x1="144" y1="0" x2="144" y2="384"/><line x1="168" y1="0" x2="168" y2="384"/>
      <line x1="216" y1="0" x2="216" y2="384"/><line x1="240" y1="0" x2="240" y2="384"/>
      <line x1="264" y1="0" x2="264" y2="384"/><line x1="312" y1="0" x2="312" y2="384"/>
      <line x1="336" y1="0" x2="336" y2="384"/><line x1="360" y1="0" x2="360" y2="384"/>
      <line x1="0" y1="24" x2="384" y2="24"/><line x1="0" y1="48" x2="384" y2="48"/>
      <line x1="0" y1="72" x2="384" y2="72"/><line x1="0" y1="120" x2="384" y2="120"/>
      <line x1="0" y1="144" x2="384" y2="144"/><line x1="0" y1="168" x2="384" y2="168"/>
      <line x1="0" y1="216" x2="384" y2="216"/><line x1="0" y1="240" x2="384" y2="240"/>
      <line x1="0" y1="264" x2="384" y2="264"/><line x1="0" y1="312" x2="384" y2="312"/>
      <line x1="0" y1="336" x2="384" y2="336"/><line x1="0" y1="360" x2="384" y2="360"/>
    </g>
    <!-- coarse 64px lines (bold): every 4 fine tiles = 96px here -->
    <g stroke="#9aa6b4" stroke-width="2">
      <line x1="96" y1="0" x2="96" y2="384"/><line x1="192" y1="0" x2="192" y2="384"/><line x1="288" y1="0" x2="288" y2="384"/>
      <line x1="0" y1="96" x2="384" y2="96"/><line x1="0" y1="192" x2="384" y2="192"/><line x1="0" y1="288" x2="384" y2="288"/>
    </g>
    <!-- shapes -->
    <path d="M 20 350 C 140 350 170 120 300 120 C 360 120 372 200 384 200" fill="none" stroke="#2f6df6" stroke-width="4"/>
    <rect x="120" y="150" width="120" height="84" rx="10" fill="none" stroke="#e8590c" stroke-width="3"/>
    <!-- highlight one coarse tile -->
    <rect x="96" y="96" width="96" height="96" fill="#7048e8" opacity="0.10" stroke="#7048e8" stroke-width="2.5"/>
    <text x="100" y="112" font-size="11" font-weight="700" fill="#7048e8">coarse 64px</text>
    <!-- highlight one fine tile within it -->
    <rect x="120" y="120" width="24" height="24" fill="#2f6df6" opacity="0.30" stroke="#2f6df6" stroke-width="2"/>
    <text x="132" y="136" font-size="9" fill="#1b2026" text-anchor="middle">16px</text>
  </g>

  <!-- right: the two slot lists -->
  <g transform="translate(456,96)">
    <!-- coarse result list -->
    <text x="0" y="0" font-size="13" font-weight="700" fill="#7048e8">Coarse tile result &#183; 512 slots</text>
    <text x="0" y="18" font-size="11" fill="#5b6672">each slot = (segment_idx, entry_idx), two 32-bit ints</text>
    <g font-size="11" font-family="ui-monospace, monospace">
      <rect x="0" y="28" width="470" height="26" rx="5" fill="#f3effe" stroke="#c9bdf2"/>
      <text x="10" y="45" fill="#1b2026">0:  (box.arc2, node)   1:  (box.arc5, node)</text>
      <rect x="0" y="58" width="470" height="26" rx="5" fill="#f3effe" stroke="#c9bdf2"/>
      <text x="10" y="75" fill="#1b2026">2:  (edge.arc7, edge)  3:  (edge.arc8, edge)  ...</text>
    </g>
    <text x="0" y="104" font-size="11" fill="#5b6672">Few coarse tiles, so the fat 4KB/tile buffer is cheap.</text>

    <!-- fine index list -->
    <text x="0" y="150" font-size="13" font-weight="700" fill="#2f6df6">Fine tile &#183; 128 slots</text>
    <text x="0" y="168" font-size="11" fill="#5b6672">each slot = one 16-bit index into the coarse result above</text>
    <g font-size="12" font-family="ui-monospace, monospace">
      <rect x="0" y="180" width="44" height="30" rx="5" fill="#dbeafe" stroke="#2f6df6"/>
      <text x="22" y="200" fill="#1b2026" text-anchor="middle">2</text>
      <rect x="52" y="180" width="44" height="30" rx="5" fill="#dbeafe" stroke="#2f6df6"/>
      <text x="74" y="200" fill="#1b2026" text-anchor="middle">3</text>
      <rect x="104" y="180" width="44" height="30" rx="5" fill="#dbeafe" stroke="#2f6df6"/>
      <text x="126" y="200" fill="#1b2026" text-anchor="middle">0</text>
      <text x="160" y="200" fill="#5b6672">... packed 2 per u32</text>
    </g>
    <text x="0" y="236" font-size="11" fill="#5b6672">16x more fine tiles, but 2 bytes/slot instead of 8.</text>

    <!-- indirection arrows -->
    <defs>
      <marker id="arT" markerWidth="9" markerHeight="9" refX="6" refY="3" orient="auto">
        <path d="M0,0 L6,3 L0,6 Z" fill="#2f6df6"/>
      </marker>
    </defs>
    <path d="M 22 180 C 22 130 200 120 235 86" fill="none" stroke="#2f6df6" stroke-width="1.4" stroke-dasharray="4 3" marker-end="url(#arT)"/>
    <text x="0" y="306" font-size="12" fill="#3a424c">A pixel reads its fine tile's 16-bit indices, dereferences each into the</text>
    <text x="0" y="324" font-size="12" fill="#3a424c">parent coarse result, then shades as usual.</text>
  </g>

  <text x="32" y="502" font-size="12" fill="#5b6672">Built by scatter: each (entry, segment) visits only tiles in its reach; a per-tile sort orders the result, then 16 threads re-cull the fine tiles into 16-bit indices.</text>
</svg>
